<svg width="60" height="61" viewBox="0 0 60 61" fill="none" xmlns="http://www.w3.org/2000/svg">
<path d="M54.7266 9.67969H5.27344C2.3598 9.67969 0 12.0541 0 14.9531V46.5938C0 49.51 2.37715 51.8672 5.27344 51.8672H54.7266C57.6158 51.8672 60 49.5199 60 46.5938V14.9531C60 12.0593 57.6496 9.67969 54.7266 9.67969ZM53.988 13.1953C52.9106 14.267 34.3691 32.7109 33.7289 33.3477C32.7328 34.3438 31.4086 34.8922 30 34.8922C28.5914 34.8922 27.2672 34.3437 26.2678 33.3444C25.8373 32.9161 7.50035 14.6759 6.01195 13.1953H53.988ZM3.51562 45.8782V15.6709L18.7076 30.7828L3.51562 45.8782ZM6.01418 48.3516L21.2002 33.2621L23.7852 35.8336C25.4453 37.4937 27.6524 38.4079 30 38.4079C32.3476 38.4079 34.5547 37.4937 36.2115 35.8369L38.7998 33.2621L53.9858 48.3516H6.01418ZM56.4844 45.8782L41.2924 30.7828L56.4844 15.6709V45.8782Z" fill="white"/>
</svg>
