<svg width="30" height="30" viewBox="0 0 30 30" fill="none" xmlns="http://www.w3.org/2000/svg">
<g clip-path="url(#clip0_727_1865)">
<path fill-rule="evenodd" clip-rule="evenodd" d="M14.9521 0.453125C17.6564 0.483984 20.0995 1.14862 22.2813 2.44703C24.4371 3.71952 26.2305 5.5238 27.4898 7.68734C28.7803 9.88231 29.4409 12.3402 29.4717 15.0609C29.395 18.7836 28.2209 21.9631 25.9492 24.5995C23.6775 27.2358 20.7681 28.8669 17.7562 29.4921V19.0549H20.6037L21.2476 14.9534H16.9359V12.267C16.912 11.7101 17.0881 11.163 17.4324 10.7246C17.7772 10.285 18.3844 10.054 19.2541 10.0315H21.8578V6.43863C21.8204 6.42661 21.4659 6.37908 20.7943 6.29604C20.0326 6.20692 19.2666 6.15932 18.4998 6.15345C16.7641 6.16146 15.3914 6.65105 14.3817 7.62224C13.372 8.59315 12.8562 9.99786 12.8343 11.8364V14.9534H9.5531V19.0549H12.8343V29.4921C9.13621 28.8669 6.22673 27.2358 3.95505 24.5995C1.68337 21.9631 0.50927 18.7836 0.432617 15.0609C0.463285 12.3401 1.1239 9.88219 2.41447 7.68734C3.67381 5.5238 5.46714 3.71952 7.62297 2.44703C9.80474 1.14887 12.2478 0.484234 14.9521 0.453125Z" fill="#353030"/>
</g>
<defs>
<clipPath id="clip0_727_1865">
<rect width="30" height="30" fill="white"/>
</clipPath>
</defs>
</svg>
