<svg width="60" height="61" viewBox="0 0 60 61" fill="none" xmlns="http://www.w3.org/2000/svg">
<path fill-rule="evenodd" clip-rule="evenodd" d="M29.9042 1.6875C35.3128 1.74922 40.199 3.07849 44.5626 5.67531C48.8743 8.22029 52.4609 11.8289 54.9795 16.1559C57.5606 20.5459 58.8818 25.4616 58.9433 30.9031C58.7901 38.3484 56.4418 44.7075 51.8984 49.9802C47.3551 55.2529 41.5361 58.515 35.5124 59.7655V38.8911H41.2073L42.4952 30.688H33.8718V25.3152C33.8239 24.2014 34.1761 23.1072 34.8648 22.2304C35.5545 21.3513 36.7689 20.8893 38.5081 20.8443H43.7155V13.6585C43.6408 13.6345 42.9318 13.5394 41.5886 13.3733C40.0652 13.1951 38.5332 13.0999 36.9995 13.0881C33.5282 13.1042 30.7828 14.0834 28.7634 16.0257C26.744 17.9676 25.7124 20.777 25.6687 24.454V30.688H19.1062V38.8911H25.6687V59.7655C18.2724 58.515 12.4535 55.2529 7.9101 49.9802C3.36674 44.7075 1.01854 38.3484 0.865234 30.9031C0.92657 25.4614 2.2478 20.5456 4.82894 16.1559C7.34762 11.8289 10.9343 8.22029 15.2459 5.67531C19.6095 3.07899 24.4956 1.74972 29.9042 1.6875Z" fill="white"/>
</svg>
