<svg width="60" height="61" viewBox="0 0 60 61" fill="none" xmlns="http://www.w3.org/2000/svg">
<g clip-path="url(#clip0_727_2350)">
<path d="M44.9994 0.773438H15.0001C6.75106 0.773438 0.000488281 7.52401 0.000488281 15.7731V45.7738C0.000488281 54.0207 6.75106 60.7734 15.0001 60.7734H44.9994C53.2485 60.7734 59.999 54.0207 59.999 45.7738V15.7731C59.999 7.52401 53.2485 0.773438 44.9994 0.773438ZM54.9989 45.7738C54.9989 51.2862 50.5148 55.7733 44.9994 55.7733H15.0001C9.48702 55.7733 5.00061 51.2862 5.00061 45.7738V15.7731C5.00061 10.2592 9.48702 5.77356 15.0001 5.77356H44.9994C50.5148 5.77356 54.9989 10.2592 54.9989 15.7731V45.7738Z" fill="white"/>
<path d="M46.2519 18.2733C48.3229 18.2733 50.0018 16.5944 50.0018 14.5233C50.0018 12.4523 48.3229 10.7734 46.2519 10.7734C44.1808 10.7734 42.502 12.4523 42.502 14.5233C42.502 16.5944 44.1808 18.2733 46.2519 18.2733Z" fill="white"/>
<path d="M30.0001 15.7734C21.7143 15.7734 15.0005 22.488 15.0005 30.7731C15.0005 39.0551 21.7143 45.7742 30.0001 45.7742C38.2836 45.7742 44.9998 39.0551 44.9998 30.7731C44.9998 22.488 38.2836 15.7734 30.0001 15.7734ZM30.0001 40.7741C24.4779 40.7741 20.0006 36.2967 20.0006 30.7731C20.0006 25.2494 24.4779 20.7736 30.0001 20.7736C35.5223 20.7736 39.9996 25.2494 39.9996 30.7731C39.9996 36.2967 35.5223 40.7741 30.0001 40.7741Z" fill="white"/>
</g>
<defs>
<clipPath id="clip0_727_2350">
<rect width="60" height="60" fill="white" transform="translate(0 0.773438)"/>
</clipPath>
</defs>
</svg>
