<svg width="64" height="64" viewBox="0 0 64 64" fill="none" xmlns="http://www.w3.org/2000/svg">
<path d="M46.4 2.66406C40.6667 2.67292 35.2958 5.46927 32 10.1604C28.7042 5.46927 23.3333 2.67292 17.6 2.66406C8.22396 2.66406 0 11.3875 0 21.3307C0 31.0214 5.47188 41.0021 15.825 50.1948C20.6219 54.4458 25.8839 58.1411 31.5104 61.2115C31.8177 61.3698 32.1823 61.3698 32.4896 61.2115C38.1141 58.1411 43.3745 54.4453 48.1698 50.1948C58.5281 41.0021 64 31.0214 64 21.3307C64 11.3875 55.776 2.66406 46.4 2.66406ZM32 59.051C28.0823 56.8891 2.13333 41.7849 2.13333 21.3307C2.13333 12.5234 9.3599 4.7974 17.6 4.7974C23.1823 4.80729 28.3281 7.81875 31.0708 12.6813C31.276 12.9948 31.6255 13.1833 32 13.1833C32.3745 13.1833 32.724 12.9948 32.9292 12.6813C35.6719 7.81875 40.8177 4.80729 46.4 4.7974C54.6401 4.7974 61.8667 12.5234 61.8667 21.3307C61.8667 41.7849 35.9177 56.8891 32 59.051Z" fill="white"/>
</svg>
