<svg width="64" height="64" viewBox="0 0 64 64" fill="none" xmlns="http://www.w3.org/2000/svg">
<path d="M62.1955 31.8616C63.675 28.9346 63.0624 25.4602 60.671 23.2157L57.2001 19.958C56.3995 19.2067 55.9101 18.3588 55.6596 17.2896L54.5738 12.6551C53.8259 9.46184 51.1231 7.19397 47.8484 7.01184L43.0958 6.74747C41.9994 6.68647 41.0794 6.35159 40.2004 5.69372L36.3896 2.84122C33.7644 0.875969 30.236 0.875719 27.6104 2.84122L23.7996 5.69359C22.9206 6.35159 22.0005 6.68647 20.9043 6.74747L16.1516 7.01184C12.877 7.19397 10.1743 9.46184 9.42626 12.6551L8.34038 17.2897C8.09001 18.3588 7.60051 19.2067 6.80001 19.9581L3.32901 23.2157C0.937631 25.4601 0.325006 28.9346 1.80451 31.8616L3.95201 36.1097C4.44738 37.0897 4.61738 38.0538 4.48701 39.1441L3.92201 43.8706C3.53288 47.127 5.29688 50.1823 8.31163 51.4736L12.6874 53.3476C13.6966 53.7798 14.4466 54.4091 15.0478 55.328L17.6531 59.3118C19.448 62.0566 22.7633 63.2633 25.9029 62.3145L30.4594 60.9375C31.5105 60.6197 32.4895 60.6198 33.5404 60.9375L38.0969 62.3145C38.8113 62.5303 39.5344 62.6347 40.2469 62.6346C42.666 62.6345 44.9601 61.4321 46.3466 59.3118L48.9521 55.328C49.5531 54.4091 50.3031 53.7797 51.3124 53.3475L55.6881 51.4735C58.7029 50.1822 60.467 47.1268 60.0778 43.8705L59.5128 39.1438C59.3824 38.0537 59.5524 37.0895 60.0478 36.1096L62.1955 31.8616ZM58.2631 35.2076C57.591 36.5372 57.3503 37.9025 57.5271 39.3815L58.0921 44.108C58.3795 46.5123 57.1269 48.6818 54.901 49.6352L50.5253 51.5092C49.1559 52.0957 48.0939 52.9868 47.2785 54.2335L44.673 58.2173C43.3478 60.2438 40.9934 61.1006 38.6756 60.4001L34.1191 59.0231C33.4061 58.8076 32.7033 58.6998 32 58.6998C31.297 58.6998 30.5938 58.8076 29.8809 59.0231L25.3244 60.4001C23.0066 61.1005 20.6524 60.2438 19.327 58.2173L16.7216 54.2335C15.9061 52.9867 14.844 52.0956 13.4748 51.5092L9.09901 49.6352C6.87301 48.682 5.62051 46.5123 5.90788 44.108L6.47288 39.3815C6.64976 37.9023 6.40901 36.5371 5.73688 35.2075L3.58938 30.9593C2.49713 28.7982 2.93201 26.3312 4.69763 24.674L8.16863 21.4163C9.25476 20.397 9.94788 19.1963 10.2876 17.7458L11.3735 13.1112C11.9258 10.7536 13.8449 9.14322 16.2626 9.00884L21.0153 8.74447C22.5026 8.66172 23.8054 8.18747 24.998 7.29484L28.8088 4.44234C30.7473 2.99134 33.2526 2.99122 35.1911 4.44234L39.0019 7.29484C40.1945 8.18747 41.4974 8.66172 42.9846 8.74447L47.7373 9.00884C50.1551 9.14334 52.0741 10.7536 52.6264 13.1113L53.7123 17.7458C54.052 19.1965 54.7453 20.3971 55.8314 21.4163L59.3023 24.674C61.0679 26.3311 61.5028 28.7982 60.4105 30.9593L58.2631 35.2076ZM32.0001 11.5561C20.7276 11.5561 11.5569 20.7268 11.5569 31.9993C11.5569 43.2718 20.7276 52.4426 32.0001 52.4426C43.2726 52.4426 52.4434 43.2718 52.4434 31.9993C52.4434 20.7268 43.2726 11.5561 32.0001 11.5561ZM32.0001 50.4426C21.8305 50.4426 13.5569 42.169 13.5569 31.9993C13.5569 21.8297 21.8305 13.5561 32.0001 13.5561C42.1698 13.5561 50.4434 21.8297 50.4434 31.9993C50.4434 42.169 42.1698 50.4426 32.0001 50.4426ZM40.5118 22.7331C40.5069 22.7331 40.5018 22.7331 40.4969 22.7331C39.4976 22.737 38.5605 23.1297 37.8584 23.8391L29.5658 32.2142L26.141 28.7893C25.4338 28.0821 24.4933 27.6926 23.4928 27.6926C22.4921 27.6926 21.5518 28.0821 20.8444 28.7895C19.3843 30.2497 19.3843 32.6257 20.8444 34.0858L26.927 40.1685C27.6571 40.8985 28.6161 41.2636 29.5753 41.2636C30.5344 41.2636 31.4935 40.8986 32.2236 40.1685C34.5298 37.8622 36.8566 35.502 39.107 33.2196C40.4591 31.848 41.8115 30.4765 43.167 29.1082C44.6173 27.6447 44.6096 25.2732 43.15 23.8217C42.4439 23.1192 41.5075 22.7331 40.5118 22.7331ZM41.7464 27.7003C40.3896 29.0698 39.0361 30.4426 37.6826 31.8153C35.4349 34.0953 33.1105 36.453 30.8094 38.7541C30.1289 39.4346 29.0215 39.4346 28.3413 38.7541L22.2588 32.6715C21.5784 31.9911 21.5784 30.8838 22.2588 30.2033C22.5883 29.8738 23.0265 29.6923 23.4928 29.6923C23.9589 29.6923 24.3973 29.8738 24.7268 30.2033L28.8621 34.3388C29.0498 34.5263 29.304 34.6317 29.5693 34.6317H29.5718C29.8379 34.6311 30.0928 34.5243 30.2799 34.3353L39.2796 25.246C39.6054 24.9168 40.0405 24.7346 40.5046 24.7328H40.5116C40.9753 24.7328 41.4111 24.9126 41.7399 25.2395C42.4188 25.915 42.4218 27.0187 41.7464 27.7003Z" fill="white"/>
</svg>
