<svg width="64" height="65" viewBox="0 0 64 65" fill="none" xmlns="http://www.w3.org/2000/svg">
<path d="M58.25 4.02344H44.5C43.1413 4.02344 42.0323 5.11294 42.0008 6.46419L32.6348 58.9136C32.6283 58.9498 32.625 58.9866 32.625 59.0234C32.625 60.4019 33.7465 61.5234 35.125 61.5234H48.875C50.1211 61.5234 51.0984 60.5864 51.3652 59.1333L60.7402 6.63331C60.7467 6.59706 60.75 6.56031 60.75 6.52344C60.75 5.14494 59.6286 4.02344 58.25 4.02344ZM50.1353 58.9106C50.0144 59.5694 49.6196 60.2734 48.875 60.2734H35.125C34.4524 60.2734 33.9022 59.7396 33.876 59.0732L43.2402 6.63319C43.2467 6.59706 43.25 6.56031 43.25 6.52344C43.25 5.83419 43.8108 5.27344 44.5 5.27344H58.25C58.9226 5.27344 59.4728 5.80731 59.499 6.47356L50.1353 58.9106ZM28.875 4.02344H15.125C13.7663 4.02344 12.6572 5.11294 12.6256 6.46419L3.25975 58.9136C3.25325 58.9498 3.25 58.9866 3.25 59.0234C3.25 60.4019 4.3715 61.5234 5.75 61.5234H19.5C20.6984 61.5234 21.5789 60.6926 21.9791 59.1837C21.9835 59.1671 21.9872 59.1502 21.9902 59.1333L31.3652 6.63331C31.3717 6.59706 31.375 6.56031 31.375 6.52344C31.375 5.14494 30.2535 4.02344 28.875 4.02344ZM20.7644 58.8873C20.5153 59.8072 20.09 60.2734 19.5 60.2734H5.75C5.0775 60.2734 4.52725 59.7396 4.501 59.0732L13.8654 6.63319C13.8717 6.59706 13.875 6.56031 13.875 6.52344C13.875 5.83419 14.4358 5.27344 15.125 5.27344H28.875C29.5475 5.27344 30.0978 5.80731 30.124 6.47356L20.7644 58.8873Z" fill="white"/>
</svg>
