<svg width="64" height="64" viewBox="0 0 64 64" fill="none" xmlns="http://www.w3.org/2000/svg">
<path d="M9.06603 38.1146C9.20728 38.1146 9.35103 38.1034 9.49478 38.0784L9.39228 37.4621L9.49604 38.0784C9.79854 38.0284 16.9973 36.8209 25.8723 32.7171C31.0773 30.3109 35.8373 27.3871 40.0223 24.0271C44.8648 20.1396 48.946 15.6534 52.1698 10.6771L52.426 11.5921C52.8135 12.9734 54.2523 13.7809 55.6335 13.3946C57.0148 13.0071 57.8223 11.5684 57.436 10.1884L55.4973 3.27464C55.3098 2.60589 54.8723 2.04964 54.2673 1.70964C53.661 1.36964 52.9598 1.28464 52.291 1.47339L45.3773 3.41214C43.996 3.79964 43.1885 5.23839 43.5748 6.61964C43.9623 8.00089 45.401 8.80839 46.781 8.42214L47.5823 8.19714C40.701 18.6284 30.8473 24.7284 23.6498 28.0446C15.4848 31.8059 8.91979 32.9046 8.63979 32.9496C7.22479 33.1859 6.26604 34.5284 6.50229 35.9434C6.71353 37.2109 7.81854 38.1146 9.06603 38.1146ZM8.84603 34.1809C9.12853 34.1346 15.856 33.0096 24.1735 29.1784C29.0523 26.9309 33.5135 24.2009 37.4348 21.0646C42.3348 17.1446 46.401 12.5734 49.5198 7.47964C49.6535 7.26089 49.6398 6.98089 49.4848 6.77589C49.3648 6.61714 49.1785 6.52839 48.986 6.52839C48.9298 6.52839 48.8735 6.53589 48.8173 6.55214L46.4435 7.21714C45.726 7.41839 44.9785 6.99839 44.7773 6.28089C44.576 5.56339 44.996 4.81589 45.7135 4.61464L52.6273 2.67589C52.9748 2.57839 53.3398 2.62214 53.6535 2.79839C53.9685 2.97464 54.1948 3.26339 54.2923 3.61089L56.231 10.5246C56.4323 11.2421 56.0123 11.9896 55.2948 12.1909C54.5773 12.3921 53.8298 11.9721 53.6285 11.2546L52.991 8.98214C52.9235 8.74214 52.721 8.56589 52.4748 8.53214C52.2285 8.49839 51.9848 8.61339 51.856 8.82589C44.471 20.9184 33.3635 27.8759 25.346 31.5821C16.6235 35.6159 9.58728 36.7959 9.29228 36.8446C9.29103 36.8446 9.28854 36.8446 9.28729 36.8459C8.55229 36.9684 7.85479 36.4696 7.73229 35.7359C7.61354 35.0009 8.11103 34.3034 8.84603 34.1809ZM60.8448 61.3746H57.9135V22.9196C57.9135 21.8471 57.041 20.9746 55.9685 20.9746H49.4923C48.4198 20.9746 47.5473 21.8471 47.5473 22.9196V61.3746H44.0935V32.1596C44.0935 31.0871 43.221 30.2146 42.1485 30.2146H35.6723C34.5998 30.2146 33.7273 31.0871 33.7273 32.1596V61.3746H30.2735V38.5134C30.2735 37.4409 29.401 36.5684 28.3285 36.5684H21.8523C20.7798 36.5684 19.9073 37.4409 19.9073 38.5134V61.3746H16.4548V46.8334C16.4548 45.7609 15.5823 44.8884 14.5098 44.8884H8.03104C6.95854 44.8884 6.08603 45.7609 6.08603 46.8334V61.3746H3.15479C2.80979 61.3746 2.52979 61.6546 2.52979 61.9996C2.52979 62.3446 2.80979 62.6246 3.15479 62.6246H60.8448C61.1898 62.6246 61.4698 62.3446 61.4698 61.9996C61.4698 61.6546 61.1898 61.3746 60.8448 61.3746ZM48.7973 22.9196C48.7973 22.5359 49.1098 22.2246 49.4923 22.2246H55.9685C56.3523 22.2246 56.6635 22.5371 56.6635 22.9196V61.3746H48.796V22.9196H48.7973ZM34.976 32.1596C34.976 31.7759 35.2885 31.4646 35.671 31.4646H42.1473C42.531 31.4646 42.8423 31.7771 42.8423 32.1596V61.3746H34.9748V32.1596H34.976ZM21.156 38.5134C21.156 38.1296 21.4685 37.8184 21.851 37.8184H28.3273C28.711 37.8184 29.0223 38.1309 29.0223 38.5134V61.3746H21.1548V38.5134H21.156ZM7.33479 46.8334C7.33479 46.4496 7.64728 46.1384 8.02978 46.1384H14.506C14.8898 46.1384 15.201 46.4509 15.201 46.8334V61.3746H7.33479V46.8334Z" fill="white"/>
</svg>
