<svg width="64" height="64" viewBox="0 0 64 64" fill="none" xmlns="http://www.w3.org/2000/svg">
<g clip-path="url(#clip0_727_1912)">
<path d="M27.044 36.9542C27.2431 37.1522 27.401 37.3877 27.5084 37.6472C27.6159 37.9066 27.6708 38.1848 27.67 38.4656V48.4588C27.6719 48.6656 27.6328 48.8707 27.5549 49.0622C27.4771 49.2538 27.362 49.428 27.2165 49.5749C27.0709 49.7218 26.8977 49.8384 26.7068 49.9179C26.516 49.9975 26.3113 50.0384 26.1045 50.0384C25.8977 50.0384 25.693 49.9975 25.5021 49.9179C25.3112 49.8384 25.138 49.7218 24.9925 49.5749C24.8469 49.428 24.7319 49.2538 24.654 49.0622C24.5762 48.8707 24.5371 48.6656 24.5389 48.4588V41.6731L2.67279 63.5396C2.379 63.8324 1.98104 63.9966 1.56627 63.9963C1.15149 63.9959 0.753804 63.831 0.460514 63.5377C0.167224 63.2444 0.00230119 62.8467 0.00195368 62.432C0.00160616 62.0172 0.165862 61.6192 0.458661 61.3254L22.3252 39.4593H15.5394C15.3326 39.4612 15.1276 39.422 14.936 39.3442C14.7444 39.2663 14.5702 39.1513 14.4233 39.0058C14.2764 38.8602 14.1599 38.687 14.0803 38.4961C14.0008 38.3053 13.9598 38.1005 13.9598 37.8938C13.9598 37.687 14.0008 37.4822 14.0803 37.2914C14.1599 37.1005 14.2764 36.9273 14.4233 36.7818C14.5702 36.6362 14.7444 36.5212 14.936 36.4433C15.1276 36.3655 15.3326 36.3263 15.5394 36.3282H25.5325C25.8134 36.3274 26.0915 36.3823 26.351 36.4898C26.6104 36.5972 26.846 36.7551 27.044 36.9542Z" fill="white"/>
<path d="M36.9561 27.0421C36.757 26.8441 36.5992 26.6085 36.4917 26.3491C36.3843 26.0897 36.3294 25.8115 36.3301 25.5307V15.5375C36.3283 15.3307 36.3674 15.1256 36.4453 14.934C36.5231 14.7425 36.6381 14.5682 36.7837 14.4214C36.9293 14.2745 37.1025 14.1579 37.2933 14.0784C37.4842 13.9988 37.6889 13.9578 37.8957 13.9578C38.1025 13.9578 38.3072 13.9988 38.4981 14.0784C38.6889 14.1579 38.8621 14.2745 39.0077 14.4214C39.1533 14.5682 39.2683 14.7425 39.3461 14.934C39.424 15.1256 39.4631 15.3307 39.4613 15.5375V22.3232L61.3274 0.456707C61.6212 0.163909 62.0191 -0.000346968 62.4339 5.50315e-07C62.8487 0.000348069 63.2464 0.165271 63.5397 0.458561C63.833 0.751851 63.9979 1.14954 63.9982 1.56431C63.9986 1.97909 63.8343 2.37705 63.5415 2.67083L41.675 24.537H48.4605C48.6673 24.5351 48.8724 24.5742 49.0639 24.6521C49.2555 24.7299 49.4297 24.845 49.5766 24.9905C49.7235 25.1361 49.8401 25.3093 49.9196 25.5002C49.9992 25.691 50.0401 25.8957 50.0401 26.1025C50.0401 26.3093 49.9992 26.514 49.9196 26.7049C49.8401 26.8957 49.7235 27.069 49.5766 27.2145C49.4297 27.3601 49.2555 27.4751 49.0639 27.553C48.8724 27.6308 48.6673 27.6699 48.4605 27.6681H38.4676C38.1868 27.6689 37.9086 27.614 37.6492 27.5065C37.3897 27.3991 37.1542 27.2412 36.9561 27.0421Z" fill="white"/>
<path d="M27.044 27.0421C26.846 27.2412 26.6105 27.399 26.3511 27.5065C26.0916 27.6139 25.8135 27.6689 25.5327 27.6681H15.5394C15.3326 27.6699 15.1276 27.6308 14.936 27.553C14.7444 27.4751 14.5702 27.3601 14.4233 27.2145C14.2764 27.069 14.1599 26.8957 14.0803 26.7049C14.0008 26.514 13.9598 26.3093 13.9598 26.1025C13.9598 25.8957 14.0008 25.691 14.0803 25.5002C14.1599 25.3093 14.2764 25.1361 14.4233 24.9905C14.5702 24.845 14.7444 24.7299 14.936 24.6521C15.1276 24.5742 15.3326 24.5351 15.5394 24.537H22.3252L0.458661 2.67083C0.165862 2.37705 0.00160616 1.97909 0.00195368 1.56431C0.00230119 1.14954 0.167224 0.751851 0.460514 0.458561C0.753804 0.165271 1.15149 0.000348069 1.56627 5.50315e-07C1.98104 -0.000346968 2.379 0.163909 2.67279 0.456707L24.5389 22.3232V15.5375C24.5371 15.3307 24.5762 15.1256 24.654 14.934C24.7319 14.7425 24.8469 14.5682 24.9925 14.4214C25.138 14.2745 25.3112 14.1579 25.5021 14.0784C25.693 13.9988 25.8977 13.9578 26.1045 13.9578C26.3113 13.9578 26.516 13.9988 26.7068 14.0784C26.8977 14.1579 27.0709 14.2745 27.2165 14.4214C27.362 14.5682 27.4771 14.7425 27.5549 14.934C27.6328 15.1256 27.6719 15.3307 27.67 15.5375V25.5306C27.6708 25.8114 27.6159 26.0896 27.5085 26.349C27.401 26.6085 27.2432 26.8441 27.044 27.0421Z" fill="white"/>
<path d="M36.9561 36.9542C37.1542 36.7551 37.3897 36.5972 37.6491 36.4898C37.9086 36.3823 38.1867 36.3274 38.4675 36.3282H48.4608C48.6675 36.3263 48.8726 36.3655 49.0642 36.4433C49.2558 36.5212 49.43 36.6362 49.5769 36.7818C49.7237 36.9273 49.8403 37.1005 49.9199 37.2914C49.9994 37.4822 50.0404 37.687 50.0404 37.8938C50.0404 38.1005 49.9994 38.3053 49.9199 38.4961C49.8403 38.687 49.7237 38.8602 49.5769 39.0058C49.43 39.1513 49.2558 39.2663 49.0642 39.3442C48.8726 39.422 48.6675 39.4612 48.4608 39.4593H41.675L63.5413 61.3254C63.8341 61.6192 63.9983 62.0172 63.998 62.432C63.9976 62.8467 63.8327 63.2444 63.5394 63.5377C63.2461 63.831 62.8484 63.9959 62.4337 63.9963C62.0189 63.9966 61.6209 63.8324 61.3271 63.5396L39.4613 41.6731V48.4586C39.4631 48.6653 39.424 48.8704 39.3461 49.062C39.2683 49.2536 39.1533 49.4278 39.0077 49.5747C38.8621 49.7215 38.6889 49.8381 38.4981 49.9177C38.3072 49.9972 38.1025 50.0382 37.8957 50.0382C37.6889 50.0382 37.4842 49.9972 37.2933 49.9177C37.1025 49.8381 36.9293 49.7215 36.7837 49.5747C36.6381 49.4278 36.5231 49.2536 36.4453 49.062C36.3674 48.8704 36.3283 48.6653 36.3301 48.4586V38.4657C36.3293 38.1849 36.3843 37.9067 36.4917 37.6472C36.5992 37.3878 36.757 37.1522 36.9561 36.9542Z" fill="white"/>
</g>
<defs>
<clipPath id="clip0_727_1912">
<rect width="64" height="64" fill="white"/>
</clipPath>
</defs>
</svg>
